Motion_pu03
version=1
nRows=8
nColumns=43
inDegrees=yes
endheader
time	pelvis_tilt	pelvis_list	pelvis_rotation	pelvis_tx	pelvis_ty	pelvis_tz	hip_flexion_r	hip_adduction_r	hip_rotation_r	knee_angle_r	ankle_angle_r	subtalar_angle_r	mtp_angle_r	hip_flexion_l	hip_adduction_l	hip_rotation_l	knee_angle_l	ankle_angle_l	subtalar_angle_l	mtp_angle_l	lumbar_extension	lumbar_bending	lumbar_rotation	neck_flexion	neck_lateral_bending	neck_rotation	arm_flex_r	arm_add_r	arm_rot_r	elbow_flex_r	pro_sup_r	wrist_flex_r	wrist_dev_r	hand_finger_flex_r	arm_flex_l	arm_add_l	arm_rot_l	elbow_flex_l	pro_sup_l	wrist_flex_l	wrist_dev_l	hand_finger_flex_l
      1.72750000	     -4.17684859	    -14.44409325	    -92.60544071	     -0.08627291	      0.94675147	      0.26533267	    -17.82401827	      3.06062147	    -10.89806736	    -16.98752928	     17.38758337	     12.03084005	     15.70885456	      9.71764059	    -14.57724973	     -7.44301284	    -37.80740323	      5.85050743	      5.37497117	     25.64096873	    -27.16699818	      7.66287123	      5.45250753	    -23.83540748	     -7.77203899	      5.69202910	    -24.13745909	    -24.44324908	    -10.28471180	     87.86227919	    123.91286451	      8.60843781	      2.58109470	    -28.17777862	    -28.18120610	    -12.76305372	    -13.94343597	     65.51777756	    129.23434549	      3.61271906	      6.98077649	     27.58072110
      1.73000000	     -4.16391709	    -14.47361501	    -92.56653307	     -0.08618396	      0.94668508	      0.26580059	    -17.88945653	      3.05203781	    -10.89904280	    -16.99148201	     17.39382304	     12.03237284	     15.70619999	      9.78636288	    -14.54238069	     -7.46047438	    -37.63585828	      5.84561761	      5.41434506	     25.63955127	    -27.22318256	      7.65014616	      5.51216291	    -23.84002491	     -7.76921257	      5.69011094	    -24.16856366	    -24.43527892	    -10.19451174	     87.85068084	    123.93293541	      8.62003508	      2.57815286	    -28.17708585	    -28.15425082	    -12.83028963	    -13.99581445	     65.51849524	    129.22076286	      3.61086502	      6.96601301	     27.57754672
      1.73250000	     -4.14625963	    -14.48304779	    -92.56078584	     -0.08603933	      0.94670389	      0.26639602	    -17.96291157	      3.02949712	    -10.92141405	    -16.94027057	     17.43151389	     12.01908503	     15.69919106	      9.68117156	    -14.46482525	     -7.43434849	    -37.11069725	      5.79463611	      5.58836952	     25.63134564	    -27.25951147	      7.64951879	      5.51484567	    -23.79722041	     -7.68124753	      5.64811912	    -24.13817331	    -24.43603629	    -10.05912907	     87.82768366	    123.99029865	      8.61469240	      2.58520347	    -28.18545429	    -28.17957907	    -12.87933910	    -14.02743212	     65.45942297	    129.17614522	      3.64373794	      6.91229238	     27.56987606
      1.73500000	     -3.61097786	    -15.76174322	    -92.75248810	     -0.08627727	      0.94902783	      0.26780153	    -19.66515204	      2.29990560	    -11.20616766	    -16.47332619	     17.35858590	     12.58477531	     15.52658754	      7.70012535	    -13.91321912	     -8.37999898	    -36.07559032	      5.79899236	      6.33715907	     25.49979886	    -28.58969523	      6.89351731	      5.47937454	    -23.67071429	     -7.58548180	      5.84145664	    -23.94071561	    -24.41250532	     -9.66975384	     87.74771943	    124.43690890	      8.42648710	      2.59263663	    -28.23345548	    -28.28514452	    -12.95799342	    -14.29862008	     65.55413697	    128.87607081	      3.87657813	      6.61936003	     27.16165351
      1.73750000	     -3.61567313	    -15.75085415	    -92.72063616	     -0.08626049	      0.94889366	      0.26829511	    -19.69641341	      2.31750252	    -11.21531715	    -16.46989342	     17.37488401	     12.58261384	     15.52676912	      7.78341279	    -13.89044929	     -8.35820735	    -35.86492172	      5.79318124	      6.36169256	     25.49498978	    -28.60573026	      6.89615960	      5.54141868	    -23.66465396	     -7.57284081	      5.82624885	    -23.97898890	    -24.38047849	     -9.58382942	     87.76029380	    124.43361593	      8.45100145	      2.58804880	    -28.22440082	    -28.25107289	    -13.03108341	    -14.34337477	     65.54933962	    128.87861021	      3.87372822	      6.62506408	     27.15462560
      1.74000000	     -3.63008067	    -15.71017744	    -92.69674267	     -0.08621853	      0.94876558	      0.26878013	    -19.70052771	      2.34328665	    -11.23655507	    -16.44528359	     17.41298379	     12.57101072	     15.52772682	      7.81709588	    -13.85712915	     -8.28267087	    -35.49269982	      5.77555692	      6.43171919	     25.48614356	    -28.59816145	      6.91249133	      5.60195184	    -23.64407340	     -7.51979994	      5.79097693	    -23.99850041	    -24.35386455	     -9.48885922	     87.76012645	    124.43434986	      8.47810937	      2.59361889	    -28.21439641	    -28.22380374	    -13.09592110	    -14.37078356	     65.53928815	    128.87644839	      3.87553305	      6.62337889	     27.14236539
      1.74250000	     -3.63720931	    -15.68262298	    -92.66522946	     -0.08611696	      0.94865690	      0.26936369	    -19.71615755	      2.35670450	    -11.25673764	    -16.43982506	     17.45152599	     12.55494154	     15.52763924	      7.82648937	    -13.81396411	     -8.19600229	    -35.12269293	      5.75381076	      6.52821950	     25.47562664	    -28.58527407	      6.92941836	      5.65102418	    -23.63199652	     -7.45011622	      5.74944229	    -24.01701922	    -24.32651285	     -9.40205321	     87.72891486	    124.44202788	      8.50146132	      2.61346251	    -28.20670824	    -28.21575515	    -13.15889022	    -14.39058290	     65.52056367	    128.86891133	      3.87477791	      6.61473031	     27.12412638
      1.74500000	     -3.64542745	    -15.69731783	    -92.67358611	     -0.08584714	      0.94855260	      0.26995452	    -19.76528921	      2.33449062	    -11.25714127	    -16.45876271	     17.45358273	     12.55193997	     15.52763094	      7.91538910	    -13.78869033	     -8.19687294	    -35.05301515	      5.75565170	      6.53792786	     25.47468218	    -28.61611947	      6.96004117	      5.68233940	    -23.63568556	     -7.44339646	      5.74690078	    -24.02122002	    -24.30630739	     -9.37759990	     87.72579834	    124.44299265	      8.50643401	      2.61379510	    -28.20534239	    -28.24081127	    -13.18276875	    -14.40280181	     65.50719840	    128.86923307	      3.87373491	      6.61676588	     27.12246536
